<svg xmlns="http://www.w3.org/2000/svg" viewBox="0 0 89 89" width="89" height="89"><rect width="89" height="89" style="fill:#fff;opacity:0.32"/><path d="M13.3,51.5H15v4.8h3.1v1.5H13.2V51.5ZM20,54.8h0a3.29,3.29,0,0,1,3.4-3.3,3.35,3.35,0,0,1,3.4,3.3h0a3.4,3.4,0,0,1-6.8,0Zm5,0h0a1.67,1.67,0,0,0-1.6-1.7,1.6,1.6,0,0,0-1.6,1.7h0a1.67,1.67,0,0,0,1.6,1.7A1.6,1.6,0,0,0,25,54.8Zm4,.3V51.5h1.8V55c0,.9.5,1.4,1.2,1.4a1.13,1.13,0,0,0,1.2-1.3V51.5H35V55a2.69,2.69,0,0,1-3,3c-1.9,0-3-.9-3-2.9Zm8.6-3.6h2.5c2.3,0,3.6,1.3,3.6,3.2h0c0,1.8-1.3,3.2-3.6,3.2H37.7l-.1-6.4Zm2.5,4.9a1.58,1.58,0,0,0,1.8-1.6h0a1.58,1.58,0,0,0-1.8-1.6h-.7v3.2Zm6.2-4.9h5.1V53H48v1.1h3v1.5H48v2.3H46.2V51.5Zm7.5,0h1.8v4.8h3.1v1.5H53.8Zm9.5,0H65l2.7,6.4H65.8l-.5-1.1H62.8l-.5,1.1H60.4l2.9-6.4Zm1.6,3.9-.7-1.8-.7,1.8ZM70,51.5h3a3.1,3.1,0,0,1,2.1.7,2,2,0,0,1,.6,1.5h0a2.09,2.09,0,0,1-1.3,2l1.5,2.2h-2L72.6,56h-.8v1.9H70V51.5Zm3,3.1c.6,0,.9-.3.9-.8h0c0-.5-.4-.8-1-.8H71.7v1.5H73Zm5.2-3.1h5.1V53H80v1h3v1.4H80v1h3.4v1.5H78.2V51.5Zm-68.8,4a1.64,1.64,0,0,1-1.5,1,1.6,1.6,0,0,1-1.6-1.7h0A1.69,1.69,0,0,1,7.9,53a1.5,1.5,0,0,1,1.5,1.1h1.9a3.37,3.37,0,0,0-3.4-2.7,3.29,3.29,0,0,0-3.4,3.3h0A3.35,3.35,0,0,0,7.9,58a3.28,3.28,0,0,0,3.3-2.5Z" style="fill:#404041"/><path d="M81.3,41.4l-4.9-2.8-.8-.4-20,.1V48.4H81.3Z" style="fill:#fff"/><path d="M72.4,47.5a2.46,2.46,0,0,0-.3-2.1,2.14,2.14,0,0,0-1.7-.8l-14-.2c-.1,0-.2,0-.2-.1s-.1-.2,0-.3.2-.2.3-.3l14.1-.2a4.9,4.9,0,0,0,4.1-3.1l.8-2.1V38a9.22,9.22,0,0,0-17.7-1,4.14,4.14,0,0,0-2.9-.8,4.25,4.25,0,0,0-3.7,3.7,6.15,6.15,0,0,0,.1,1.4,5.87,5.87,0,0,0-5.7,5.9,2.77,2.77,0,0,0,.1.9c0,.1.1.2.3.2H71.8a.32.32,0,0,0,.3-.3l.3-.5Z" style="fill:#f38020"/><path d="M76.8,38.6h-.4a.22.22,0,0,0-.2.2l-.5,1.9a2.46,2.46,0,0,0,.3,2.1,2.14,2.14,0,0,0,1.7.8l3,.2c.1,0,.2,0,.2.1s.1.2,0,.3-.2.2-.3.3l-3.1.2a4.9,4.9,0,0,0-4.1,3.1l-.2.6c0,.1,0,.2.2.2H84.1c.1,0,.2-.1.3-.2a7.61,7.61,0,0,0,.3-2.1,7.94,7.94,0,0,0-7.9-7.7" style="fill:#faae40"/></svg>