<svg xmlns="http://www.w3.org/2000/svg" viewBox="0 0 89 89" width="89" height="89"><rect width="89" height="89" style="fill:#fff"/><path d="M79,23.49a18.9,18.9,0,0,0-5.88,2.36,24.61,24.61,0,0,0-3.3,2.34,38.1,38.1,0,0,0-3.22,3,60.12,60.12,0,0,0-5.29,6.72,29.64,29.64,0,0,1-6,6.24,16.5,16.5,0,0,1-5.58,3.11c-.91.28-1.87.37-2.8.59a4.51,4.51,0,0,0-3.34,3l-1,2.68a.7.7,0,0,1-.13.24c-.11.11-.15.35-.34.32s-.14-.34-.14-.51a16.19,16.19,0,0,1,.8-4.83A34.38,34.38,0,0,1,45.3,42a29.57,29.57,0,0,1,3.84-5.75,35.18,35.18,0,0,1,9.51-7.79,43.31,43.31,0,0,1,8.85-3.88A27.15,27.15,0,0,1,73,23.41a22.87,22.87,0,0,1,3.21-.2A16.39,16.39,0,0,1,79,23.49Z" style="fill:#46a843"/><path d="M42.37,35.31c-.15,1.33-.28,2.8-.52,4.26s-.49,2.84-.71,4.26c-.19,1.22-.43,2.44-.71,3.65a3.05,3.05,0,0,0,.08,1.5c.16.67.08.79-.55,1.09a29.08,29.08,0,0,1-4.24,1.65,6.81,6.81,0,0,1-1.95.43c-.16,0-.33,0-.34-.24a8.6,8.6,0,0,0-1.2-3.58c-1-2-2.27-3.93-3.48-5.84a74.56,74.56,0,0,1-4.62-7.74,7.71,7.71,0,0,1-1-3.38,2.14,2.14,0,0,1,.51-1.51,2.63,2.63,0,0,0,.44-2.45A2.62,2.62,0,0,1,25,25a2,2,0,0,1,2.11.13,11.16,11.16,0,0,1,3.4,3.44,25.21,25.21,0,0,1,3,6.52c.62,1.76,1.27,3.51,1.91,5.26,0,0,.08.09.08.14s-.06.25.11.27.19-.15.21-.24a10,10,0,0,1,1-2.38A18.77,18.77,0,0,1,39.75,34,2.07,2.07,0,0,1,41,33.36c1-.14,1.38.26,1.45,1.37A2.17,2.17,0,0,0,42.37,35.31Z" style="fill:#025785"/><path d="M38.79,26.61a4.4,4.4,0,0,1,4.4-4.42h0a4.48,4.48,0,1,1-.06,9H43.1A4.44,4.44,0,0,1,38.79,26.61Z" style="fill:#f98031"/><path d="M51.19,59.38c.21-.23-.06-.61.22-.67a3.38,3.38,0,0,1,1.1,0c.18,0,.12.2.12.32,0,1.76.07,3.53,0,5.28a2.46,2.46,0,0,1-2.51,2.41h0a7.13,7.13,0,0,1-2-.11.81.81,0,0,1-.48-1.25c.13-.18.22,0,.32,0a3.69,3.69,0,0,0,1.8.25c1.07-.27,1.45-.68,1.45-1.77a1.41,1.41,0,0,1,0-.29.72.72,0,0,0-.54.21,1.9,1.9,0,0,1-2.39.28A2.39,2.39,0,0,1,47,61.93a3.63,3.63,0,0,1,.74-2.72A2.32,2.32,0,0,1,51,59.14,2.25,2.25,0,0,0,51.19,59.38Zm-1.43.31a1,1,0,0,0-1.1.68,2.94,2.94,0,0,0-.06,1.83,1.23,1.23,0,0,0,1.47.92,1.26,1.26,0,0,0,.48-.23,1.84,1.84,0,0,0,.61-1.17,1.64,1.64,0,0,0-1.19-2Z" style="fill:#025785"/><path d="M68.49,65.25c2.87,1.08,3.71-.25,3.58-1.73-.13-.05-.19.07-.26.15a2.24,2.24,0,0,1-2.48.46,2.28,2.28,0,0,1-1.51-2,4.11,4.11,0,0,1,.26-2.22,2.32,2.32,0,0,1,3.07-1.17,2.15,2.15,0,0,1,.72.51c.06.07.13.12.2.19.18-.23-.09-.62.19-.7a2.86,2.86,0,0,1,1,0c.23,0,.18.19.18.33,0,1.8.07,3.6,0,5.4a2.35,2.35,0,0,1-2.21,2.27,6.11,6.11,0,0,1-2.37-.1c-.37-.1-.74-.22-.46-.76A1.68,1.68,0,0,0,68.49,65.25ZM72,61.44a1.61,1.61,0,0,0-.16-.92,1.12,1.12,0,0,0-.94-.82c-.44,0-.9-.08-1.2.35a2.34,2.34,0,0,0-.14,2.43,1.16,1.16,0,0,0,1.54.56.31.31,0,0,0,.1,0A1.74,1.74,0,0,0,72,61.44Z" style="fill:#025785"/><path d="M14.61,59.85c-.36,1.31-.7,2.5-1,3.71-.21.81-.19.81-1,.81s-.89,0-1.16-.87C11,62,10.53,60.5,10,59c-.11-.32,0-.32.23-.34,1.27-.06,1.28-.07,1.57,1.12.25,1,.49,2.07.78,3.24.25-.89.47-1.65.68-2.42.15-.54.31-1.08.43-1.63a.33.33,0,0,1,.35-.31h1.2c.39,0,.41.18.48.45.33,1.28.68,2.55,1,3.86.37-1.4.73-2.75,1.08-4.1a.18.18,0,0,1,.2-.2c.39,0,.88-.14,1.14.05s-.07.64-.17,1c-.44,1.44-.92,2.88-1.36,4.32-.08.26-.17.36-.44.37-1.28,0-1.27.06-1.61-1.15S15,61.07,14.61,59.85Z" style="fill:#025785"/><path d="M33,61.44a2.71,2.71,0,0,1,3-3c1.58,0,3,.66,3,3.17A2.79,2.79,0,0,1,36.3,64.5H36A2.78,2.78,0,0,1,33,62,2.17,2.17,0,0,1,33,61.44Zm4.47.11v-.49a1.71,1.71,0,0,0-1.27-1.48,1.4,1.4,0,0,0-1.42.83,2.37,2.37,0,0,0,0,2.11,1.32,1.32,0,0,0,1.69.75,1.4,1.4,0,0,0,.51-.36,2,2,0,0,0,.52-1.36Z" style="fill:#025785"/><path d="M59.88,61.53a2.76,2.76,0,0,1-2.49,3,2.17,2.17,0,0,1-.51,0A2.83,2.83,0,0,1,53.81,62a3.62,3.62,0,0,1,0-.57,2.68,2.68,0,0,1,2.47-2.89,1.88,1.88,0,0,1,.53,0,2.7,2.7,0,0,1,3.06,2.29A2.81,2.81,0,0,1,59.88,61.53Zm-1.57,0V61a1.63,1.63,0,0,0-1.13-1.43,1.26,1.26,0,0,0-1.42.59,2.37,2.37,0,0,0-.14,2.21,1.31,1.31,0,0,0,1.65.87,1.13,1.13,0,0,0,.51-.29,1.68,1.68,0,0,0,.53-1.45Z" style="fill:#025785"/><path d="M25.86,61.6a2.78,2.78,0,0,1-2.66,2.9,2.9,2.9,0,0,1-.51,0,2.77,2.77,0,0,1-2.88-2.66,2.5,2.5,0,0,1,0-.47,2.68,2.68,0,0,1,2.45-2.88,2.51,2.51,0,0,1,.55,0,2.7,2.7,0,0,1,3,2.32A3,3,0,0,1,25.86,61.6Zm-1.59-.16a1.82,1.82,0,0,0-.19-1,1.34,1.34,0,0,0-1.78-.68,1.22,1.22,0,0,0-.42.29,2.6,2.6,0,0,0-.23,2.62,1.34,1.34,0,0,0,1.81.58,1.12,1.12,0,0,0,.33-.24A1.79,1.79,0,0,0,24.27,61.44Z" style="fill:#025785"/><path d="M41.72,59.48a2.54,2.54,0,0,1,1.62-1,1.84,1.84,0,0,1,2.23,1.37,2,2,0,0,1,0,.26A29.54,29.54,0,0,1,45.72,64c0,.3-.06.41-.39.42-1.18,0-1.18,0-1.18-1.13V61.13c0-1-.26-1.32-1-1.33A1.23,1.23,0,0,0,41.85,61a1.48,1.48,0,0,0,0,.21V63.9c0,.36-.08.48-.46.48-1.12,0-1.11,0-1.11-1.08V59.23c0-.47.14-.64.59-.55h.17C41.69,58.68,41.69,58.68,41.72,59.48Z" style="fill:#025785"/><path d="M62.6,59.43a2.41,2.41,0,0,1,1.73-.92,1.87,1.87,0,0,1,2,1.1,4.48,4.48,0,0,1,.23,1.5V64c0,.3-.09.37-.38.38-1.09,0-1.07,0-1.09-1a15.21,15.21,0,0,0-.1-2.7.89.89,0,0,0-.69-.81,1.11,1.11,0,0,0-1.28.38,1.91,1.91,0,0,0-.38,1.18v2.62c0,.29-.08.37-.37.38-1.09,0-1.09,0-1.09-1.06V59.2c0-.41.13-.53.5-.48h.17C62.42,58.6,62.75,58.73,62.6,59.43Z" style="fill:#025785"/><path d="M27.08,60.19v-3.8c0-.31.08-.4.4-.41,1.18,0,1.18,0,1.18,1.13v6.8c0,.36-.09.47-.46.47-1.12,0-1.12,0-1.12-1.13Z" style="fill:#025785"/><path d="M31.66,60.24v3.68c0,.37-.11.46-.47.46-1,0-1,0-1-1V56.52c0-.42.11-.53.52-.52.95,0,.95,0,.95,1v3.24Z" style="fill:#025785"/></svg>